<?xml version="1.0" encoding="UTF-8"?>
<!DOCTYPE svg PUBLIC "-//W3C//DTD SVG 1.1//EN" "http://www.w3.org/Graphics/SVG/1.1/DTD/svg11.dtd">
<svg xmlns="http://www.w3.org/2000/svg" version="1.1" width="512px" height="512px" style="shape-rendering:geometricPrecision; text-rendering:geometricPrecision; image-rendering:optimizeQuality; fill-rule:evenodd; clip-rule:evenodd" xmlns:xlink="http://www.w3.org/1999/xlink">
<g><path style="opacity:0.973" fill="#000000" d="M 511.5,359.5 C 511.5,364.833 511.5,370.167 511.5,375.5C 504.899,394.315 491.566,402.148 471.5,399C 468.007,398.058 464.674,396.725 461.5,395C 392.68,327.014 324.014,258.847 255.5,190.5C 186.986,258.847 118.32,327.014 49.5,395C 34.0262,402.486 19.8595,400.653 7,389.5C 3.67822,385.185 1.17822,380.518 -0.5,375.5C -0.5,370.167 -0.5,364.833 -0.5,359.5C 1.17822,354.482 3.67822,349.815 7,345.5C 82.5,270 158,194.5 233.5,119C 244.553,111.054 256.553,109.388 269.5,114C 272.433,115.271 275.099,116.938 277.5,119C 353,194.5 428.5,270 504,345.5C 507.322,349.815 509.822,354.482 511.5,359.5 Z"/></g>
</svg>
